/* XPM */
static char *_182b2f3175c4fd78fa2e0ec3d6911efJi0YkE3vnkr0bTFo[] = {
/* columns rows colors chars-per-pixel */
"33 32 111 2 ",
"   c #499D4A",
".  c #469746",
"X  c #3F8B40",
"o  c #439343",
"O  c #439546",
"+  c #449444",
"@  c #4A9C4A",
"#  c #418F43",
"$  c #479847",
"%  c #489C49",
"&  c #408E42",
"*  c #3E8C3F",
"=  c #479948",
"-  c #377E37",
";  c #459546",
":  c #3A8139",
">  c #357E37",
",  c #429142",
"<  c #347A35",
"1  c #3C873D",
"2  c #3B823A",
"3  c #479947",
"4  c #459647",
"5  c #3E8A3F",
"6  c #3E893F",
"7  c #3F8A3F",
"8  c #2F7430",
"9  c #3D863D",
"0  c #3D883E",
"q  c #317430",
"w  c #419343",
"e  c #439042",
"r  c #388039",
"t  c #307531",
"y  c #377E39",
"u  c #327733",
"i  c #419042",
"p  c #408C41",
"a  c #408C3F",
"s  c #489A48",
"d  c #3F8D40",
"f  c #439544",
"g  c #317431",
"h  c #347C36",
"j  c #367D36",
"k  c #357B35",
"l  c #3C873E",
"z  c #397F38",
"x  c #439245",
"c  c #337934",
"v  c #3A853C",
"b  c #3C853C",
"n  c #377F38",
"m  c #337833",
"M  c #388038",
"N  c #3B843C",
"B  c #429144",
"V  c #307330",
"C  c #429444",
"Z  c #459645",
"A  c #479B48",
"S  c #3B863D",
"D  c #449144",
"F  c #3B863C",
"G  c #479B49",
"H  c #459846",
"J  c #419044",
"K  c #499B49",
"L  c #377C36",
"P  c #337B35",
"I  c #347A34",
"U  c #3E893D",
"Y  c #418D40",
"T  c #317632",
"R  c #3B843B",
"E  c #3A833A",
"W  c #3F8B3E",
"Q  c #489C4A",
"!  c #3C883E",
"~  c #3A833B",
"^  c #408B40",
"/  c #327531",
"(  c #3F8A40",
")  c #337634",
"_  c #3E8A40",
"`  c #3A813A",
"'  c #418F41",
"]  c #3C833B",
"[  c #3A8039",
"{  c #357B37",
"}  c #3C893E",
"|  c #4B9D4B",
" . c #4D9F4D",
".. c #459245",
"X. c #3D843B",
"o. c #459847",
"O. c #57A657",
"+. c #89CC8D",
"@. c #317833",
"#. c #387D37",
"$. c #5BAA5D",
"%. c #A2DEA7",
"&. c #327533",
"*. c #4A994C",
"=. c #508951",
"-. c #3F8A41",
";. c #367D38",
":. c #327732",
">. c #3C893F",
",. c #469A48",
"<. c #337834",
/* pixels */
"      . X o       O X +             @ # X $     % & * =           ",
"      O - - +   ; : > ,             % X < 1 $ @ # < 2 3           ",
"4 5 6 # 7 8 9   0 q 0 w 6 6 O   e 6 5 4 r t e % y u i p 6 a = s d ",
"f r g h 0 j 9   0 k l z 8 j x   d c t v b c e % n : 0 m t b $ = 9 ",
"  . M 8 N O B   x B 9 V n C       & < g # & . @ & Z - t v s     A ",
"    o S #         @ e b D         % d F Z @     @ G X 1 H         ",
"                                                                  ",
"                                                                  ",
"  ; S d               J b o       p 9 .             K 6 1 s     s ",
"Z 2 L & @           % B j n f   # P : .             K 5 I 1 3 s U ",
"Y T R x N b i   B b v e b g X   E t p W N S Z Q X v S ; L c O . < ",
"Y h 1 r V h w   C n V j ! - X   ~ 2 1 c 8 R .   d u t ~ 1 h O . L ",
"H x ^ / n +       Z M g ( O .   C . 2 g b 3     % Y < ) C B s A B ",
"    Z ( D           x _ O           e _ .         K & X =         ",
"                                                                  ",
"                                                                  ",
"      + : X %   @ & ` '             % U : f     A b ] $           ",
"  % % . 2 I &   e h [ O % % @   Q % K e { M ; % } m 1 3 % %   |  .",
"..2 M 0 7 g 9   0 g 0 p M : D   * [ : o : t e % - c ' X.M b o.O.+.",
"$ 9 g @.1 ] l   0 r 1 < 8 2 .   + j g #.6 L e % r 0 ] T T a s $.%.",
"  s S T S 3 .   H . 0 &.b $       ; z T i ; s   Z H z u p %   *.=.",
"    . # O           Z # .           O # 3         % o i s     s -.",
"                                                                  ",
"                      @ K Q       % K                 % K         ",
"                      Y ;.a %   A F z O             A R z Z @     ",
"                % s s Z r I e   5 @.9 o.s s %   K s s e < : .   G ",
"                & - h 5 F T X   E :.X R h M O % 1 L - B - c O $ R ",
"                $ N t @.>.] p   b 0 N T T X s   + P g L X n Z % B ",
"                  ,.S @.p 3 s   3 s v <.a K       f z < O $ %   % ",
"                    $ + 3           . + s         @ 4 + K         ",
"                                                                  ",
"                                                                  "
};
