/* XPM */
static char *_2eceb0afb8f4ed5b00bbaac7b06e49cl3ZU09tSEnMEP02Z[] = {
/* columns rows colors chars-per-pixel */
"33 32 219 2 ",
"   c #0F3E15",
".  c #1C3315",
"X  c #143B13",
"o  c #1B3A16",
"O  c #1D331A",
"+  c #153B1B",
"@  c #1C3B1C",
"#  c #153719",
"$  c #232B11",
"%  c #282B1F",
"&  c #213315",
"*  c #21331B",
"=  c #2D321C",
"-  c #223B1E",
";  c #1C3424",
":  c #143A26",
">  c #1D3C24",
",  c #1D3E2B",
"<  c #1D3628",
"1  c #272C21",
"2  c #282B20",
"3  c #243522",
"4  c #2A3424",
"5  c #233B23",
"6  c #2B3B24",
"7  c #243F29",
"8  c #2B3A2A",
"9  c #30392C",
"0  c #34372B",
"q  c #323D30",
"w  c #0C470C",
"e  c #104E0E",
"r  c #14440C",
"t  c #0F4515",
"y  c #0F451C",
"u  c #134315",
"i  c #1A4516",
"p  c #134B13",
"a  c #16441A",
"s  c #1C431C",
"d  c #144B1D",
"f  c #1B4B1C",
"g  c #1B4914",
"h  c #15521D",
"j  c #1D531C",
"k  c #23441D",
"l  c #22491D",
"z  c #205C1B",
"x  c #164521",
"c  c #1C4323",
"v  c #174923",
"b  c #1B4B24",
"n  c #1B432B",
"m  c #1C4A2A",
"M  c #164B28",
"N  c #1C5323",
"B  c #1F5927",
"V  c #234324",
"C  c #2B4324",
"Z  c #224A24",
"A  c #23432B",
"S  c #29442B",
"D  c #244C2A",
"F  c #2A4C2C",
"G  c #2A4E21",
"H  c #32422D",
"J  c #364E2F",
"K  c #235324",
"L  c #2B5324",
"P  c #235B25",
"I  c #22522A",
"U  c #2C542C",
"Y  c #255A2A",
"T  c #2C5C2E",
"R  c #345E2E",
"E  c #395E2F",
"W  c #2E4F30",
"Q  c #3B4B3B",
"!  c #374734",
"~  c #275533",
"^  c #2B5430",
"/  c #2B5B34",
"(  c #265E3C",
")  c #2D5E39",
"_  c #335636",
"`  c #3A5636",
"'  c #315B35",
"]  c #3A5F33",
"[  c #3F503F",
"{  c #335C3B",
"}  c #3B5B3B",
"|  c #1E7C37",
" . c #1E7B38",
".. c #25622D",
"X. c #296F2F",
"o. c #27672B",
"O. c #34622D",
"+. c #3F612C",
"@. c #236432",
"#. c #2B6434",
"$. c #2A6A35",
"%. c #2C633A",
"&. c #2D6B3D",
"*. c #266C38",
"=. c #336432",
"-. c #3C6635",
";. c #316A35",
":. c #3B6B32",
">. c #35653C",
",. c #3B643C",
"<. c #346C3C",
"1. c #3B6E3D",
"2. c #2B7433",
"3. c #257D36",
"4. c #2C7835",
"5. c #2D733D",
"6. c #227C3B",
"7. c #2A7B3D",
"8. c #267634",
"9. c #33733B",
"0. c #3B733C",
"q. c #377B3D",
"w. c #3D7C3D",
"e. c #327135",
"r. c #425B3D",
"t. c #415838",
"y. c #46673A",
"u. c #417B3E",
"i. c #2F5E41",
"p. c #3B5441",
"a. c #3C5E42",
"s. c #365F45",
"d. c #2E6640",
"f. c #2E6C42",
"g. c #346442",
"h. c #3B6443",
"j. c #336D43",
"k. c #3B6B45",
"l. c #3C6C4A",
"z. c #336A4A",
"x. c #2E7444",
"c. c #267940",
"v. c #337442",
"b. c #3B7342",
"n. c #347A42",
"m. c #3C7C43",
"M. c #35754D",
"N. c #3B704B",
"B. c #347B4C",
"V. c #3A794A",
"C. c #3B6B54",
"Z. c #435243",
"A. c #465745",
"S. c #436544",
"D. c #406C46",
"F. c #4A6C47",
"G. c #42614B",
"H. c #466F4B",
"J. c #4C6D4C",
"K. c #4A6443",
"L. c #526E4C",
"P. c #447745",
"I. c #417B45",
"U. c #43744C",
"Y. c #4C754E",
"T. c #437E4A",
"R. c #497A4F",
"E. c #52744E",
"W. c #446A54",
"Q. c #4F6B52",
"!. c #446E5B",
"~. c #427350",
"^. c #437B52",
"/. c #4D7B52",
"(. c #4D7158",
"). c #557554",
"_. c #537953",
"`. c #547D5B",
"'. c #5B7A59",
"]. c #57755B",
"[. c #1E8136",
"{. c #238031",
"}. c #288033",
"|. c #2F803C",
" X c #39803B",
".X c #3C893C",
"XX c #42863F",
"oX c #3E8243",
"OX c #3D814A",
"+X c #3F8A46",
"@X c #45824C",
"#X c #438C4A",
"$X c #4A8E4E",
"%X c #4A8C47",
"&X c #538F4F",
"*X c #479247",
"=X c #45934D",
"-X c #4A944E",
";X c #459B4E",
":X c #4A9A4D",
">X c #419B44",
",X c #54934D",
"<X c #448451",
"1X c #4B8354",
"2X c #4C8954",
"3X c #4E8859",
"4X c #588156",
"5X c #538D52",
"6X c #52855B",
"7X c #5A845C",
"8X c #538B5D",
"9X c #588B5A",
"0X c #4B9551",
"qX c #469A52",
"wX c #4A9A50",
"eX c #4F905A",
"rX c #529254",
"tX c #568B61",
"yX c #5D8960",
/* pixels */
">X;X,Xu.j w p o.5.j r e o.&X,X-XwX0XrX1.f t + r.S.x u d $.rXrX:X;X",
":X-Xw.f P.8XU.b X ' 1X9XK ;.%XwXwX-X0.g /.8Xl.5 o >.6X7Xa 9.-XwX;X",
"-XoX1.s D.^.N.V O ) M.).C #.2.#X0Xq.<.u R.~.l.- O d.M.'.o ;.4.=X-X",
"m.j u   y %.l.S O { j.F . u p =.-.l u X s a.S.5 @ g.j.V X t p :.-.",
"P H.tXV.&.N X { k.b a #.b.1X6XZ o E.9Xv.;.s o >.j.a a $.5.2X4Xo @ ",
"L J.U.x.7.e.i P.8XI T n.7.v.`.V . ).V.6.7.;.i <X8Xf -.7.6.b.'.# O ",
"U @ ^ ;.;.-.s b.3XI T ;.$.>.7 3 4 3 ' &.&.,.s T.2Xk } *.*.} 5 3 4 ",
"D.V o s s 5 @ ~ g.A 5 V x > O [ A.5 @ x n 7 @ ) d.> 8 c x @ * A.A.",
"Y x %.v.<.g.8 5 n < Q h.5.j.D O O c &.x.f.s.5 5 n < A.h.5.j.V O O ",
"P U.^.x.f.M @ } j.D @ Y 8.7.6XC & R.B.v.&.x @ ,.j.c @ @.8.n.`.& & ",
"K S.).S.C O / 7.6.&.k X T R.`.5 & L._.y.6 & =.3.6.;.X u =._.].O . ",
"L @ O - 3 * O.3.[.v.C @ > < ; , 5 * * > 4 = :.{.3.b.@ > , < < 7 5 ",
"P.U X %.l.c -.u.q.Y.H p.W., > g.k.V # z.C.5 y.w.n.E.3 G.C.: c k.h.",
"@Xk.x k.l., O S./.S 1 Q (.Z %.m.m.1.d ~.G.3 * H./.8 1 A.(.x <.m.I.",
"qXOXN a @ 5 > @ # > 5 5 s a 2.=X0Xq.h a @ > 5 @ + 5 5 - s d 4.0X0X",
"qXqXoX1.>.>.h.S @ _ >.>.<.n.-XwX;XwXm.1.>.>.g.V > { ,.>.<.m.0X:X;X",
"wXwX5X1.K d c _ } Z v b @.2XrX:X;X0X5X=.K d c } } b b N @.2XrX:X;X",
"qX=Xw.g U.tXU.C . ) 1XyXZ $.+XqX;X=X0.u 1X8Xl.@ o >.6X7Xa 9.#X;X;X",
"0X0.=.a ,.U.N.C O %.B.Y.k ..$.#X$Xe.=.u D.U.l.- O d.M.).o #.2.$X$X",
"E L l a s _ h.F 5 / &.D o d j O.] G l a V } a.V c %.&.Z a f j =.] ",
". F.6Xv.9.Y o >.V.b s $.7.@X7XV o _.3Xx.5.K o k.V.a f 5.7.1X7Xo o ",
". r.N.c.6.e.s I.eXL E 7.6.0.J.5 O S.v.7.7.<.i @X8Xl -.7.6.b.J.O O ",
"0 4 W %.%.} - b.1XD J #.@._ 6 8 9 3 _ %.) } @ T.1Xk ` @.@._ 3 8 9 ",
"Z.6 @ m m S 3 ~ ( 7 8 S b c O Q Z.5 c m m A > ~ ( > 9 A b c O Z.Z.",
". Z &.x.x.g.5 5 n > Q h.x.x.^ * O D f.x.x.i.5 7 n < Z.k.5.v.F O O ",
"$ F.<Xv.>.v s >.j.I @ B 8.m.7XC . /.OXv.%.x c ,.j.Z o ..4.m.7X& & ",
"* r.L.r.6 $ R 3.| 9.k X U J.Q.5 O K.J.t.= & =.|  .<.X X ' J.Q.O * ",
"A * O > 7 = +.}.3.b.C 5 n ; ; A S * O , 8 = :.{.3.b.@ A , ; ; A S ",
"l.^ # z.C.A t.u.m.H.H p.!.n n g.k.F + M.C.5 y.u.I.J.3 G.!.: m k.D.",
"m.0.d g.h.5 * } U.S 2 ! J.b #.m.I.0.d l.a.3 * S.H.5 % t.W.a <.m.I.",
":XXXz g k k C o X V V V f d 4.=X;XoXj k C C S @ # C C C V h |.;X;X",
":X:X.X Xw.u.u.o.P 0.m.m. X X*X:X;X;XoX0.=.{ { S A / ) / j.OX0XwX:X"
};
