/* XPM */
static char *collect_ok1703872482[] = {
/* columns rows colors chars-per-pixel */
"33 32 111 2 ",
"   c #341817",
".  c #391817",
"X  c #351C19",
"o  c #3C1B19",
"O  c #3D3927",
"+  c #411B1A",
"@  c #40211C",
"#  c #63261A",
"$  c #72211B",
"%  c #7C231C",
"&  c #4D2524",
"*  c #502624",
"=  c #592421",
"-  c #433727",
";  c #443728",
":  c #4E362A",
">  c #453B2B",
",  c #4D392B",
"<  c #513B2D",
"1  c #593C2F",
"2  c #622723",
"3  c #632B25",
"4  c #6B2C27",
"5  c #672E29",
"6  c #653128",
"7  c #2F7430",
"8  c #317531",
"9  c #357B35",
"0  c #377F38",
"q  c #397F38",
"w  c #44422A",
"e  c #4E4928",
"r  c #514D31",
"t  c #7B522A",
"y  c #6F593E",
"u  c #7F5A3C",
"i  c #556230",
"p  c #4D783E",
"a  c #676335",
"s  c #646F3B",
"d  c #497C41",
"f  c #82241B",
"g  c #8D321F",
"h  c #97331F",
"j  c #99331F",
"k  c #AB2F1B",
"l  c #B52F1C",
"z  c #BC2D1C",
"x  c #AE341A",
"c  c #B3311B",
"v  c #BB311C",
"b  c #8E3320",
"n  c #81372F",
"m  c #973320",
"M  c #983320",
"N  c #963B23",
"B  c #933F28",
"V  c #8E3F36",
"C  c #913E36",
"Z  c #A73729",
"A  c #AB3528",
"S  c #C32B1C",
"D  c #CA2C1E",
"F  c #C1311D",
"G  c #CA3A23",
"H  c #D73E26",
"J  c #954029",
"K  c #994029",
"L  c #8E4236",
"P  c #8F4138",
"I  c #84543D",
"U  c #80583C",
"Y  c #AF592C",
"T  c #B15029",
"R  c #A55331",
"E  c #9B622C",
"W  c #BA632E",
"Q  c #A06234",
"!  c #D74328",
"~  c #E97237",
"^  c #EA7938",
"/  c #865740",
"(  c #3B843B",
")  c #3E893F",
"_  c #408C3F",
"`  c #3F8B40",
"'  c #4C8542",
"]  c #408E42",
"[  c #558F47",
"{  c #449445",
"}  c #469847",
"|  c #479A48",
" . c #499D4A",
".. c #50964A",
"X. c #508951",
"o. c #7F8047",
"O. c #57A657",
"+. c #5BAA5D",
"@. c #E08C3C",
"#. c #EF9437",
"$. c #ED953A",
"%. c #ED983A",
"&. c #B5864A",
"*. c #BD9544",
"=. c #B29F4B",
"-. c #A5A04D",
";. c #B6A34C",
":. c #C39947",
">. c #E79A40",
",. c #89CC8D",
"<. c #A2DEA7",
/* pixels */
" . . .} ` { |  . .{ ] }  . . . . . . .] ) }  . . .] ] }  . . . . .",
" . . .{ 0 0 {  .{ 0 9 ]  . . . . . . .] 9 ) }  .] 9 0 }  . . . . .",
"} ) ) ] ) 7 )  .) 7 ` ] ] _ {  .] ` ` { 0 8 ] | q 8 ] ] _ ]  .} ` ",
"{ ( 7 9 ) 9 )  .) 9 ) q 7 9 ] ..d 8 7 ` ( 9 {  .0 0 ` 9 8 ( } } ` ",
"| } ( 7 ( } ]  .{ ] ` 8 0 { [ u 5 ; 8 8 ] ] }  .` } 9 8 ( }  . .} ",
" .| { ) ]  . . . . .] ( {  .u L 3 o ; ) }  . . . .| ] ) }  . . . .",
" . . . . . . . . . . . . ./ P P 5 . o ;  . . . . . . . . . . . . .",
" . . . . . . . . . . . ./ V V C a o . o ;  . . . . . . . . . . . .",
" .{ ) )  . . . . . . .I V V C A k f + . o ;  . . . . .) ) |  . .} ",
"} ( 9 `  . . . . . .y V V C A c c k f + . e s  . . .| ` 8 ) }  .` ",
"] 7 ) { ( ( ]  .{ ) 1 5 n Z c x x c k f # i B  .` ) ) { 9 9 { } 9 ",
"] 9 ) 0 8 9 {  .{ 9 : & 5 c x x x l v l g b J  .` 8 7 ( ) 9 { { 0 ",
"} { ) 8 0 {  . . .{ : * 2 l x l c c v F m b J  . .] 9 8 { ]  .| { ",
" .| } ` {  . . . . .< * 2 z c l l v v S m b J  . . .] ` }  . . . .",
" . . . . . . . . . .< & 2 l l c v v v D m b K  . . . . . . . . . .",
" . . . . . . . . . .e & 2 z c v v v z D m m K  . . . . . . . . . .",
" . . .{ 0 `  . . .` , & 2 z c v v z S D h b J  .| ) ( }  . . . . .",
" . . .{ q 9 `  .{ 9 , & 2 v v v S S S D h b J  .) 8 ( }  . . . . .",
"{ q q ` ` 8 ` } ` 7 , * 2 v z z S S S D j h K  .9 8 { ( q ( } O.,.",
"{ ` 8 7 ` ( `  .` 0 < * = t S S S S D ! T N J  .( ) ( 8 8 _  .+.<.",
" .| ` 8 ` } {  .{ } < & o $ z S S D H ^ @.W R  .} } 0 8 _  . .} X.",
" . .{ ] }  . . . . .r o   X f z D R ~ #.%.>.&. . . .{ ]  . . . .` ",
" . . . . . . . . . .' w X   X % F ^ #.#.%.;. . . . . . . . . . . .",
" . . . . . . . . . . . .d X   X Y %.#.%.-. . . . . . . . . . . . .",
" . . . . . . . . . . ._ 9 > X   E #.$.=. . . . . . . .( q } }  . .",
" . . . . . . . . .}  .{ 0 9 O X E $.:.}  .}  . .}  .} ] 9 q }  . .",
" . . . . . . . .] q 9 ] ) 8 ) > E *.) ( 9 9 {  .( 9 q { q 8 } } ` ",
" . . . . . . . .} ( 8 8 ) ( ]  .s ) ) 8 8 ]  . .{ 9 8 9 _ q {  .} ",
" . . . . . . . . . .) 8 ] }  . . . ._ 9 _  . . . .{ q 9 } }  . . .",
" . . . . . . . . . .} { }  . . . . .} {  . . . . . .{ {  . . . . .",
" . . . . . . . . . . . . . . . . . . . . . . . . . . . . . . . . .",
" . . . . . . . . . . . . . . . . . . . . . . . . . . . . . . . . ."
};
