/* XPM */
static char *exit_11703873825[] = {
/* columns rows colors chars-per-pixel */
"33 32 195 2 ",
"   c #1A1716",
".  c #171916",
"X  c #1A1916",
"o  c #191719",
"O  c #171919",
"+  c #191819",
"@  c #16171D",
"#  c #241C15",
"$  c #2A1D14",
"%  c #231D1B",
"&  c #2B1E1B",
"*  c #2C2115",
"=  c #27211F",
"-  c #2B221C",
";  c #2E291D",
":  c #34241B",
">  c #39251D",
",  c #32291D",
"<  c #3C2B1C",
"1  c #372317",
"2  c #34341E",
"3  c #3F391F",
"4  c #272322",
"5  c #2B2422",
"6  c #2C2A23",
"7  c #342622",
"8  c #392722",
"9  c #352A24",
"0  c #3A2C26",
"q  c #342C2A",
"w  c #3C2E29",
"e  c #343122",
"r  c #3D3325",
"t  c #3E3129",
"y  c #3A382C",
"u  c #3E3C34",
"i  c #3A3531",
"p  c #442B1C",
"a  c #482C1E",
"s  c #43321E",
"d  c #47381E",
"f  c #48321D",
"g  c #53321E",
"h  c #442E22",
"j  c #482A20",
"k  c #412F2A",
"l  c #443222",
"z  c #4C3323",
"x  c #453820",
"c  c #4A3A24",
"v  c #43332B",
"b  c #49352D",
"n  c #433B2C",
"m  c #4A3A2D",
"M  c #543424",
"N  c #5C3626",
"B  c #543A24",
"V  c #5D3B24",
"C  c #563F2A",
"Z  c #423D34",
"A  c #4D3E32",
"S  c #423D39",
"D  c #613C25",
"F  c #693E29",
"G  c #633B26",
"H  c #357B36",
"J  c #317632",
"K  c #4B442C",
"L  c #544426",
"P  c #5E4326",
"I  c #534229",
"U  c #5B422A",
"Y  c #4D4434",
"T  c #45433A",
"R  c #49443E",
"E  c #4B4637",
"W  c #534334",
"Q  c #554C3B",
"!  c #574939",
"~  c #5C5630",
"^  c #634226",
"/  c #6A4226",
"(  c #6F4927",
")  c #63422A",
"_  c #6A452B",
"`  c #644A2A",
"'  c #6C4B2D",
"]  c #73452B",
"[  c #754C2D",
"{  c #7C4628",
"}  c #6B532D",
"|  c #7B542F",
" . c #6D4F32",
".. c #724F31",
"X. c #6B5232",
"o. c #6D5932",
"O. c #625131",
"+. c #735332",
"@. c #7C5433",
"#. c #775933",
"$. c #7A5A33",
"%. c #7B5E39",
"&. c #7B643A",
"*. c #796533",
"=. c #474640",
"-. c #494740",
";. c #534D44",
":. c #595543",
">. c #585842",
",. c #5B574A",
"<. c #655942",
"1. c #655C4A",
"2. c #695E47",
"3. c #676047",
"4. c #6A634A",
"5. c #716A4D",
"6. c #6E6C58",
"7. c #736A56",
"8. c #756C58",
"9. c #7B755A",
"0. c #79745A",
"q. c #7C7665",
"w. c #814C2B",
"e. c #83542E",
"r. c #8A552D",
"t. c #845632",
"y. c #835A34",
"u. c #8D5D34",
"i. c #825D3B",
"p. c #945F34",
"a. c #8E6437",
"s. c #8D643B",
"d. c #846A3B",
"f. c #8F6E3F",
"g. c #856039",
"h. c #936235",
"j. c #9E6A37",
"k. c #92653C",
"l. c #936C3D",
"z. c #9A6D3D",
"x. c #9B6537",
"c. c #857235",
"v. c #847139",
"b. c #9A723E",
"n. c #A26D3A",
"m. c #A3723C",
"M. c #AA743D",
"N. c #AA793D",
"B. c #B17B3F",
"V. c #876C41",
"C. c #887143",
"Z. c #9C7542",
"A. c #9C7B44",
"S. c #9F7F49",
"D. c #917142",
"F. c #877D55",
"G. c #A37541",
"H. c #A37942",
"J. c #AB7C42",
"K. c #A27649",
"L. c #B27C43",
"P. c #847C64",
"I. c #837866",
"U. c #3B833B",
"Y. c #3E8A3E",
"T. c #3F8C41",
"R. c #418D40",
"E. c #449445",
"W. c #469847",
"Q. c #479B48",
"!. c #499D4A",
"~. c #508951",
"^. c #57A657",
"/. c #5BAA5D",
"(. c #9C8049",
"). c #AE854B",
"_. c #B68144",
"`. c #BB8745",
"'. c #B78845",
"]. c #B1894C",
"[. c #BD8C4A",
"{. c #B4954F",
"}. c #8B856A",
"|. c #898573",
" X c #949178",
".X c #C08D49",
"XX c #C2924C",
"oX c #C39352",
"OX c #C59952",
"+X c #C99A53",
"@X c #CDA155",
"#X c #C7A154",
"$X c #D2A159",
"%X c #89CC8D",
"&X c #A2DEA7",
/* pixels */
"!.!.b.oXN.( s 0 # - s < - d < , x , r x - s < $ % s g y.oXm.@X!.!.",
"!.!.m.p.N p l.b.v 1 Z.J.< OXf.$.OX} ].).P J.#.> P K.@.> ] e.@X!.!.",
"W.Y.z.l # % > N t.h < z., e.D M t.l [ ' B | & ` | j , o * D #X!.R.",
"E.U.} + + @ o o ` b % V % & : * > * 7 # 1 h o  .l + o + O * {.Q.U.",
"!.E.< O X O .   c 0   # h ) p.h.p.p.r.M < X o B ; . X X + X L !.Q.",
"!.!.1 # C.).A.D.i.l # M w.m.[.$X$X+X_.x.] j o _ y.A.(.(.o.+ z !.!.",
"!.!.p i.a.^ P V B * F r.L..XXXn.j.N.OX_.n.w.h p V D D [ b.^ _ !.!.",
"!.!.s C d.d.d.&.t.z / n.L.M.M..X+X'.n.N.L.p.a _ | &.d.d.&.l ..!.!.",
"!.E.# ' H.l.s.u.P : F r.m.N.XX`.L.[.[.m.n.w.a h | a.k.b.b.z : !.W.",
"W.U.X X.X.I L K #.z F { b.OXL.L.L.L.`.oXp.{ a ..P I L L $.c . Q.T.",
"Y.J X P ].J.m.b./ * p ] #.P P P P P P ` #.N & p | Z.H.).H.l . W.H ",
"R.H X $.) , > a - = X : M M N N N N N N z $ % # 1 p : < +.C   W.H ",
"W.E.  .   # I i.B @.j e o > G G G G M $ $ - X.' ) s.s @ . o + Q.E.",
"!.!.    ; V.| ' l.^ C.h.% + X . + o o o h l.o.| f.V k.O.+ + + !.!.",
"!.!.. . 0 Z.F ` x.p H.t.- / z p F < D V p j.} ^ b.p t.#.X + . !.!.",
"!.!.. . : +.M x ' 1 o.D * y.U B $.l +. .: [ B M [ : ) U + + . !.!.",
"!.!.5 9 9 8 7 9 8 7 9 9 9 9 8 9 8 9 9 9 9 9 9 8 8 q 9 8 q 9 % !.!.",
"!.!.7 w t w v t t t w v v w v t v w w k t t k w t w w v k w - !.!.",
"E.U.O Z T Z n 7 S =.S Z u q -.S T T R q Z Z Z R q q S Z T i K ^.%X",
"W.U.O |.}.9.0.Q 1.P.9.9.6.;.P.9.9.9.9.E 9.9.9.P.E 1.9.9. X5.v./.&X",
"!.Q.  i Z v v 0 9 v n b y 5 n b n v t - n n n v 5 w v n Z y ~ !.~.",
"!.!.. R ;.q 5 o o o % @ + o o o + + + o + o o X o % = n ;.T F.!.T.",
"!.!.. 6.P.W 0   O O o O o o O   + + O + + O O + + % k 1.}.>.2 !.!.",
"!.!.. Q <.A w . o O   O O   O O + + + O O o O   O % n Q 4.K *.!.!.",
"!.!.& Z Q m k & o + + O O   o O O O o . O O o O + 5 k C Q Z c.Q.!.",
"!.!.w & q.7.b 9 . O O   O O O .     O o     O . % v ! I.1.6 v.!.Q.",
"!.!.9 # 1.2.b q + O O O O O   o + O o . O     O + k W 5.E 6 s Q.U.",
"!.!.& X >.<.b 9 + . o O   O O     O o O . o o O + v A 2.T 6 e !.E.",
"!.!.% % 9 Y v 0 o 4 & 6 % 6 4 5   5 & 6 & 5 5 % X v K n = ; e !.!.",
"!.Q.= 9 e q.8.0 + & w 7 0 7 8 8 w 7 0 7 0 8 7 % + A I.>.= e e !.!.",
"!.!.4 5 ; 1.<.0 + 7 b k v v v h b k v v v v v = % A 4.E = 9 e !.!.",
"!.!.# 5 % q y 8 + 8 k b v v b v v b v v v b v - X t e 6 X 6 e !.!."
};
