/* XPM */
static char *_34a2dacf0dc48deccc1b1106a79e2eedIPS1rVHMlbhyCA0[] = {
/* columns rows colors chars-per-pixel */
"32 32 220 2 ",
"   c None",
".  c #1E3F0F",
"X  c #39270A",
"o  c #3A271B",
"O  c #29381E",
"+  c #3A331C",
"@  c #343619",
"#  c #2A251D",
"$  c #1F2F22",
"%  c #1E3B24",
"&  c #2B2B24",
"*  c #272829",
"=  c #33252A",
"-  c #352B26",
";  c #293D24",
":  c #253828",
">  c #343422",
",  c #343828",
"<  c #283931",
"1  c #30343B",
"2  c #482A17",
"3  c #582D1A",
"4  c #4D311F",
"5  c #55321E",
"6  c #543E1E",
"7  c #65271D",
"8  c #412A24",
"9  c #4A3B28",
"0  c #54332C",
"q  c #5D3D2B",
"w  c #563825",
"e  c #40243C",
"r  c #443634",
"t  c #523A30",
"y  c #51273C",
"u  c #653B2D",
"i  c #65382B",
"p  c #70392B",
"a  c #683836",
"s  c #743E37",
"d  c #6C2826",
"f  c #264315",
"g  c #2C471A",
"h  c #374919",
"j  c #294222",
"k  c #354C22",
"l  c #3B4522",
"z  c #39572B",
"x  c #3B5438",
"c  c #324537",
"v  c #3E672F",
"b  c #54431F",
"n  c #73421F",
"m  c #494629",
"M  c #55442B",
"N  c #5B4C2B",
"B  c #594629",
"V  c #46582B",
"C  c #52512A",
"Z  c #494839",
"A  c #5A4432",
"S  c #564834",
"D  c #435C3D",
"F  c #425735",
"G  c #57523E",
"H  c #64452D",
"J  c #615E26",
"K  c #6B4A34",
"L  c #684734",
"P  c #784F3F",
"I  c #6A5A38",
"U  c #72563A",
"Y  c #79513D",
"T  c #76432E",
"R  c #476725",
"E  c #52622F",
"W  c #5B7529",
"Q  c #436034",
"!  c #47663A",
"~  c #4D7539",
"^  c #547A32",
"/  c #567739",
"(  c #516932",
")  c #69673B",
"_  c #637738",
"`  c #756232",
"'  c #402D46",
"]  c #513C4C",
"[  c #773C47",
"{  c #385044",
"}  c #444A43",
"|  c #524A43",
" . c #57494E",
".. c #584E45",
"X. c #405842",
"o. c #595548",
"O. c #455857",
"+. c #544953",
"@. c #664948",
"#. c #685849",
"$. c #785B44",
"%. c #665556",
"&. c #755458",
"*. c #724B52",
"=. c #477147",
"-. c #577949",
";. c #556C54",
":. c #597D56",
">. c #4B684B",
",. c #6E614B",
"<. c #7F724D",
"1. c #766458",
"2. c #73745E",
"3. c #757859",
"4. c #706550",
"5. c #725065",
"6. c #6C4970",
"7. c #787569",
"8. c #7C6E72",
"9. c #737567",
"0. c #8E3D31",
"q. c #805E3E",
"w. c #894B2E",
"e. c #AB573B",
"r. c #96613F",
"t. c #807826",
"y. c #A36330",
"u. c #AC7F31",
"i. c #CC7B39",
"p. c #835344",
"a. c #87584A",
"s. c #865150",
"d. c #84664A",
"f. c #936953",
"g. c #8F6C55",
"h. c #AC6D4E",
"j. c #AE7C4D",
"k. c #B36B44",
"l. c #915B6C",
"z. c #AF5F73",
"x. c #B15D78",
"c. c #896777",
"v. c #907D71",
"b. c #B36175",
"n. c #C47E48",
"m. c #5E942C",
"M. c #7D912D",
"N. c #6A8C31",
"B. c #649332",
"V. c #6F983A",
"C. c #749536",
"Z. c #65962D",
"A. c #7AAB3B",
"S. c #578752",
"D. c #718342",
"F. c #76994E",
"G. c #738955",
"H. c #76955A",
"J. c #658552",
"K. c #7CAB47",
"L. c #79A958",
"P. c #58936F",
"I. c #789867",
"U. c #629D77",
"Y. c #73B87B",
"T. c #72B071",
"R. c #86902E",
"E. c #829130",
"W. c #858139",
"Q. c #A78C3A",
"!. c #B88332",
"~. c #86B83A",
"^. c #809D55",
"/. c #B08642",
"(. c #86AB54",
"). c #8CB556",
"_. c #84AF46",
"`. c #99897A",
"'. c #9D917E",
"]. c #8A9E6B",
"[. c #AB8A73",
"{. c #A78866",
"}. c #8CA061",
"|. c #9DBE67",
" X c #D28344",
".X c #C48A66",
"XX c #C89A79",
"oX c #87C543",
"OX c #81C57B",
"+X c #A9CB7D",
"@X c #995882",
"#X c #A65983",
"$X c #9A688A",
"%X c #936A97",
"&X c #A86E8A",
"*X c #A16991",
"=X c #AE69A8",
"-X c #D56C9D",
";X c #C86DA8",
":X c #D16FAB",
">X c #C97CAA",
",X c #73B780",
"<X c #79C787",
"1X c #9E8E8F",
"2X c #AB9C87",
"3X c #A7BF88",
"4X c #BCA9B3",
"5X c #B8B0B1",
"6X c #DDA686",
"7X c #B4D18F",
"8X c #B6D383",
"9X c #B7CE98",
"0X c #D4D6BA",
"qX c #D3C3BB",
"wX c #D8E6BB",
"eX c #CCCEC9",
"rX c #D9CBC3",
"tX c #D7D4C5",
"yX c #DACFD1",
"uX c #E3D7D0",
/* pixels */
"                                                                ",
"                                                                ",
"                        g f g f !                               ",
"                    @ m _ _ W R Q z                             ",
"                % j h W (.).C.W.` C ! =.                        ",
"                < D K.oXoXA.E.u. Xj.+ { O.                      ",
"          f h @ > -._.~.~.M.t.!.i.k.a %X6.]                     ",
"          V D.) @ E V.C.R.Q.Q./.y.0.x.;X=X5.>                   ",
"        V F._.N.W _ ( J /.n.w.n p.b.-X:X>X&.m                   ",
"        ( ).A.Z.N./ o.$.r.e.0.s l.>X;X#Xc.| S                   ",
"      . ~ K.m.B.^ z 4.[.T 7 z.&X$X*X@Xy r 9 A I                 ",
"      g ~ V.B.^ ; # p.6XXXa $X5.' ] e ] &.1.K 6 I               ",
"        Q R ^ k * = p .X.Xa *X5.8.5X .4Xc.0 q U B I             ",
"          v z D - = K h.h.i &X*.v.0Xo.yX4X%.8 q Y B             ",
"            -.:.&  .*.w.f.a.[ a.[.2X'.uX1X#.A 3 a.w C           ",
"                < +.@.w U f.s f.{.g.`.uX`.,.$.H Y H M I         ",
"                x 1 * O V ) d.q.q.U A rX2X,.<.d.5 $.M N         ",
"                  O.: =.T.k X X 2 2 t qXv.o B $.5 a.B M         ",
"                  { =.Y.Y.S.l m #.#.1.rX7.#.1.9 2 p.q A         ",
"                  ! ~ OX<X,X:.D Z 1.7.tX9.1.1.+ 2 a.u M         ",
"                ! -.F.L.T.<XU.;.Z | o.tX7.| %.m 2 p.u 9         ",
"                k J.|.(.T.Y.P.P.;.Z 2.0X2., %.,.4 a.u 9         ",
"                z Q I.7X+XL.L.^.}.}.9XwX3.G 2.,.q P u           ",
"                -.z D G.H.+X8X8X7X3X].0X7...#.t $.q K           ",
"                J.X.: , l G.G.H.I.2.o.eX7...*.0 $.5 q           ",
"                D c * & - m V F x } } eX9.r @.K L H             ",
"                j $ * = = 0 3 7 a @.r v.g.H N K H               ",
"                z ; & & = 0 p d s.&.8 o L U N b                 ",
"                  x ; , & o o - - - & - > + m                   ",
"                      ! j O : : : : : x   F                     ",
"                        -.;.;.                                  ",
"                                                                "
};
